mtllib large_body.mtl
usemtl body_orange
v -0.9500000 -0.5500000 0.0800000
v -0.9500000 0.5500000 0.0800000
v 0.9500000 -0.5500000 0.0800000
v 0.9500000 0.5500000 0.0800000
v -0.9500000 -0.5500000 0.2300000
v -0.9500000 0.5500000 0.2300000
v 0.9500000 -0.5500000 0.2300000
v 0.9500000 0.5500000 0.2300000
v -0.9500000 -0.4700000 0.2900000
v -0.9500000 0.4700000 0.2900000
v -0.4800000 -0.3800000 0.4250000
v -0.4800000 0.3800000 0.4250000
v 0.4800000 -0.3800000 0.4250000
v 0.4800000 0.3800000 0.4250000
v 0.9500000 -0.4700000 0.2900000
v 0.9500000 0.4700000 0.2900000
vn 0.114142714 0.596078618 0.794771491
vn 0.114142714 -0.596078618 0.794771491
vn -0.114142714 -0.596078618 0.794771491
vn -0.114142714 0.596078618 0.794771491
vn -0.000000000 -0.000000000 -1.000000000
vn -0.000000000 -0.000000000 -1.000000000
vn 0.000000000 -1.000000000 0.000000000
vn 0.000000000 -1.000000000 0.000000000
vn 0.000000000 -0.753772730 0.657135200
vn 0.000000000 -0.753772730 0.657135200
vn -0.000000000 1.000000000 0.000000000
vn -0.000000000 1.000000000 0.000000000
vn 0.000000000 0.000000000 1.000000000
vn 0.000000000 0.000000000 1.000000000
vn -0.000000000 0.753772730 0.657135200
vn -0.000000000 0.753772730 0.657135200
vn 1.000000000 -0.000000000 -0.000000000
vn 1.000000000 -0.000000000 -0.000000000
vn 1.000000000 -0.000000000 -0.000000000
vn 1.000000000 -0.000000000 -0.000000000
vn 0.276071311 0.000000000 0.961137155
vn 0.276071311 0.000000000 0.961137155
vn -1.000000000 -0.000000000 -0.000000000
vn -1.000000000 -0.000000000 -0.000000000
vn -1.000000000 -0.000000000 -0.000000000
vn -1.000000000 -0.000000000 -0.000000000
vn -0.276071311 0.000000000 0.961137155
vn -0.276071311 0.000000000 0.961137155
f 14//1 16//1 8//1
f 15//2 13//2 7//2
f 9//3 5//3 11//3
f 10//4 12//4 6//4
f 4//5 1//5 2//5
f 4//6 3//6 1//6
f 7//7 1//7 3//7
f 7//8 5//8 1//8
f 7//9 11//9 5//9
f 7//10 13//10 11//10
f 6//11 4//11 2//11
f 6//12 8//12 4//12
f 14//13 11//13 13//13
f 14//14 12//14 11//14
f 14//15 6//15 12//15
f 14//16 8//16 6//16
f 15//17 3//17 4//17
f 15//18 8//18 16//18
f 15//19 4//19 8//19
f 15//20 7//20 3//20
f 15//21 14//21 13//21
f 15//22 16//22 14//22
f 10//23 2//23 1//23
f 10//24 1//24 5//24
f 10//25 6//25 2//25
f 10//26 5//26 9//26
f 10//27 11//27 12//27
f 10//28 9//28 11//28
